# xmcd
#
# Track frame offsets:
#	150
#	17820
#	34668
#	52836
#	68075
#	83499
#	99763
#	118828
#	135726
#	152077
#	170589
#	190166
#
# Disc length: 2768 seconds
#
# Revision: 0
# Processed by: cddbd v1.5.2PL0 Copyright (c) Steve Scherf et al.
# Submitted via: EasyCDDAExtractor 12.0.4.1
#
DISCID=8f0ace0c
DTITLE=Various Artist - "น้ำพุ"
DYEAR=1900
DGENRE=Acoustic
TTITLE0=เสือ  ธนพล - เสียคน
TTITLE1=ไบรโอนี่  รอดโพธิ์ทอง - รักเธอ
TTITLE2=ตะวัน  จารุจินดา - พระจันทร์สีน้ำเงิน
TTITLE3=BBG and ZINE - เต้นด้วยคน
TTITLE4=อนนถวดี  จิรมณีกุล - ฝันที่สวยงาม
TTITLE5=ประดิษฐ์  วรสุทธิพิศิษฎ์ - จะไปทางไหน
TTITLE6=ตะวัน จารุจินดา - หา
TTITLE7=แพร  ธรรมเสถียร - มามะ
TTITLE8=ตะวัน  จารุจินดา - ไม่หยุดรักเธอ
TTITLE9=แมทธิว  ดีน - ดึงดาว
TTITLE10=BLUE  MOON - พระจันทร์สีน้ำเงิน
TTITLE11=BACKING  TRACK - เสียคน
EXTD=
EXTT0=
EXTT1=
EXTT2=
EXTT3=
EXTT4=
EXTT5=
EXTT6=
EXTT7=
EXTT8=
EXTT9=
EXTT10=
EXTT11=
PLAYORDER=
